# xmcd
#
# Track frame offsets: 
#        182
#        13952
#        30680
#        46165
#        63452
#        80520
#        99462
#        120592
#        133607
#        149610
#        166940
#        180362
#
# Disc length: 2832 seconds
#
# Revision: 4
# Processed by: cddbd v1.5.2PL0 Copyright (c) Steve Scherf et al.
# Submitted via: ExactAudioCopy v0.99pb4
#
DISCID=9e0b0e0c
DTITLE=The Carpenters - Singles 1974 - 1978
DYEAR=1996
DGENRE=Pop
TTITLE0=Sweet Sweet Smile
TTITLE1=Jambalaya (On the Bayou)
TTITLE2=Can't Smile Without You
TTITLE3=I Won't Last a Day Without You
TTITLE4=All You Get From Love Is a Love Song
TTITLE5=Only Yesterday
TTITLE6=Solitaire
TTITLE7=Please Mr. Postman
TTITLE8=I Need To Be In Love
TTITLE9=Happy
TTITLE10=There's A Kind Of Hush
TTITLE11=Calling Occupants Of Interplanetary Craft
EXTD=ID3G:   0
EXTT0=
EXTT1=
EXTT2=
EXTT3=
EXTT4=
EXTT5=
EXTT6=
EXTT7=
EXTT8=
EXTT9=
EXTT10=
EXTT11=
PLAYORDER=
